<svg width="44" height="44" viewBox="0 0 44 44" fill="none" xmlns="http://www.w3.org/2000/svg">
<path d="M3.30719 0.640655C2.7767 0.640795 2.25831 0.799138 1.81828 1.09544C1.37826 1.39174 1.03659 1.81254 0.836975 2.30404C0.637356 2.79554 0.588851 3.3354 0.697662 3.85461C0.806472 4.37382 1.06765 4.84879 1.44782 5.21878L18.2291 22L1.44782 38.7813C1.19189 39.027 0.987558 39.3213 0.846799 39.647C0.706039 39.9727 0.631677 40.3232 0.628068 40.6779C0.624458 41.0327 0.691674 41.3846 0.825778 41.7131C0.959883 42.0416 1.15818 42.34 1.40906 42.5909C1.65993 42.8417 1.95835 43.0401 2.28682 43.1742C2.61529 43.3083 2.96722 43.3755 3.322 43.3719C3.67677 43.3683 4.02726 43.2939 4.35293 43.1531C4.67861 43.0124 4.97293 42.808 5.21865 42.5521L21.9999 25.7709L38.7811 42.5521C39.0269 42.808 39.3212 43.0124 39.6469 43.1531C39.9725 43.2939 40.323 43.3683 40.6778 43.3719C41.0326 43.3755 41.3845 43.3083 41.713 43.1742C42.0415 43.0401 42.3399 42.8418 42.5908 42.5909C42.8416 42.34 43.0399 42.0416 43.174 41.7131C43.3081 41.3846 43.3754 41.0327 43.3717 40.6779C43.3681 40.3232 43.2938 39.9727 43.153 39.647C43.0122 39.3213 42.8079 39.027 42.552 38.7813L25.7707 22L42.552 5.21878C42.9373 4.84421 43.2005 4.36197 43.3071 3.83525C43.4136 3.30853 43.3586 2.76191 43.1491 2.26701C42.9397 1.77212 42.5856 1.35204 42.1333 1.06183C41.681 0.771618 41.1516 0.624814 40.6145 0.640655C39.9217 0.661298 39.2641 0.950843 38.7811 1.44795L21.9999 18.2292L5.21865 1.44795C4.97014 1.1925 4.67296 0.989442 4.34465 0.850784C4.01634 0.712126 3.66358 0.640676 3.30719 0.640655Z" fill="black" fill-opacity="0.5"/>
</svg>
