<svg width="64" height="64" viewBox="0 0 64 64" fill="none" xmlns="http://www.w3.org/2000/svg">
<path d="M44.5013 4.01066C45.952 4.13866 48.2133 4.864 49.92 6.35733C51.712 8.10667 52.1386 10.7947 51.4986 13.184C50.944 15.36 50.304 16.4693 48.0853 17.9627C45.8666 19.456 43.1786 19.3707 43.1786 19.3707V28.7147L47.744 32.384L43.1786 36.0533V48.8107C43.1786 48.8107 47.744 46.1653 50.56 40.3627C50.56 40.3627 50.688 40.0213 50.944 39.424C51.2 41.0027 51.0293 44.2027 49.28 48.256C47.9573 51.328 45.5253 54.3147 42.4533 55.9787C37.0346 58.9653 32.9813 59.264 28.672 58.368C23.5946 57.3013 18.944 54.4853 15.7866 49.4933C13.568 45.9947 12.5866 41.8987 12.672 37.504C12.8426 28.8853 19.2853 21.4613 26.6666 18.6453C27.5626 18.304 27.9466 18.0907 29.2266 17.9627C28.6293 18.3467 27.9466 18.8587 27.136 19.4133C24.7466 20.992 22.6986 24.1067 21.8453 26.496L36.224 20.096V40.192L24.6186 45.9947C25.9413 47.8293 29.952 50.6027 33.408 50.9867C39.2106 51.6267 42.6666 49.0667 42.6666 49.0667V36.0533L38.144 32.384L42.6666 28.7147V19.3707C40.192 19.072 37.2053 18.2613 35.456 17.8347C32.896 17.1947 24.2773 14.8053 22.912 14.592C21.5466 14.3787 19.8826 14.464 18.9013 15.36C17.8773 16.256 17.28 17.8773 17.7066 19.328C17.9626 20.1387 18.5173 20.608 18.944 21.0773C18.944 21.0773 18.432 21.0347 17.536 20.48C15.9146 19.4987 14.6773 17.5787 14.5493 15.232C14.3786 12.16 15.616 9.38667 18.176 7.50933C20.3946 6.10133 22.8693 5.20533 25.7706 5.58933C29.9946 6.18666 35.712 8.61867 40.7893 9.81333C42.752 10.2827 44.288 10.4533 45.6533 9.64267C46.2933 9.17333 47.4453 7.97866 46.5066 6.4C45.44 4.56533 43.3493 4.608 41.6 4.26666C43.0506 3.92533 43.392 3.92533 44.5013 4.01066ZM27.392 43.9893V24.576L21.5466 27.1787C21.5466 27.1787 20.0533 30.5067 20.3093 35.3707C20.5226 39.1253 22.6133 43.648 24.2346 45.568L27.392 43.9893Z" fill="black"/>
</svg>
