<svg width="26" height="26" viewBox="0 0 26 26" fill="none" xmlns="http://www.w3.org/2000/svg">
<path d="M15.1333 0.200012C21.0117 0.200012 25.8 4.98828 25.8 10.8667C25.8 16.7451 21.0117 21.5333 15.1333 21.5333C12.577 21.5333 10.2294 20.6256 8.38957 19.1188L2.02082 25.4875C1.92253 25.5899 1.80481 25.6716 1.67454 25.7279C1.54427 25.7842 1.40407 25.814 1.26216 25.8154C1.12025 25.8169 0.979477 25.79 0.848087 25.7363C0.716698 25.6827 0.597332 25.6034 0.496981 25.503C0.396629 25.4027 0.31731 25.2833 0.26367 25.1519C0.210028 25.0205 0.18314 24.8798 0.184584 24.7378C0.186028 24.5959 0.215775 24.4557 0.272079 24.3255C0.328384 24.1952 0.410116 24.0775 0.512489 23.9792L6.88124 17.6104C5.3744 15.7706 4.46666 13.423 4.46666 10.8667C4.46666 4.98828 9.25492 0.200012 15.1333 0.200012ZM15.1333 2.33335C10.4079 2.33335 6.59999 6.14121 6.59999 10.8667C6.59999 15.5921 10.4079 19.4 15.1333 19.4C19.8588 19.4 23.6667 15.5921 23.6667 10.8667C23.6667 6.14121 19.8588 2.33335 15.1333 2.33335Z" fill="black"/>
</svg>
