<svg width="26" height="26" viewBox="0 0 26 26" fill="none" xmlns="http://www.w3.org/2000/svg">
<path d="M15.1334 0.200012C21.0118 0.200012 25.8 4.98828 25.8 10.8667C25.8 16.7451 21.0118 21.5333 15.1334 21.5333C12.5771 21.5333 10.2295 20.6256 8.38963 19.1188L2.02088 25.4875C1.9226 25.5899 1.80487 25.6716 1.6746 25.7279C1.54433 25.7842 1.40413 25.814 1.26222 25.8154C1.12031 25.8169 0.979538 25.79 0.848148 25.7363C0.716759 25.6827 0.597393 25.6034 0.497042 25.503C0.39669 25.4027 0.317371 25.2833 0.263731 25.1519C0.210089 25.0205 0.183201 24.8798 0.184645 24.7378C0.186089 24.5959 0.215836 24.4557 0.272141 24.3255C0.328445 24.1952 0.410177 24.0775 0.51255 23.9792L6.8813 17.6104C5.37446 15.7706 4.46672 13.423 4.46672 10.8667C4.46672 4.98828 9.25498 0.200012 15.1334 0.200012ZM15.1334 2.33335C10.4079 2.33335 6.60005 6.14121 6.60005 10.8667C6.60005 15.5921 10.4079 19.4 15.1334 19.4C19.8588 19.4 23.6667 15.5921 23.6667 10.8667C23.6667 6.14121 19.8588 2.33335 15.1334 2.33335Z" fill="black" fill-opacity="0.5"/>
</svg>
